# xmcd
#
# Track frame offsets:
#	150
#	15593
#	33854
#	45951
#	56646
#	78379
#	93764
#	106997
#	120348
#
# Disc length: 1729 seconds
#
# Revision: 1
# Processed by: cddbd v1.5.2PL0 Copyright (c) Steve Scherf et al.
# Submitted via: audiograbber 1.83.01
#
DISCID=5906bf09
DTITLE=Irvin Blais - l'Party Du Temps Des Fêtes
DYEAR=2006
DGENRE=Country
TTITLE0=Mon Arbre De Noël(Irvin Blais-Irvin Blais)
TTITLE1=Les Douze Coups(Irvin Blais-Irvin Blais)
TTITLE2=L'Père Noël Y'a L'Look De Mon Père(Irvin Blais-Irvin Blais)
TTITLE3=C'est Noël(Irvin Blais-Irvin Blais)
TTITLE4=Orphelin(Irvin Blais-Irvin Blais)
TTITLE5=Party D'Noël(Irvin Blais-Irvin Blais)
TTITLE6=Ayoye Donc(Irvin Blais-Irvin Blais)
TTITLE7=La Soupe À 'Cine(Irvin Blais-Irvin Blais)
TTITLE8=Le Reel Du Bébé De L'année(Irvin Blais-Irvin Blais)
EXTD=
EXTT0=
EXTT1=
EXTT2=
EXTT3=
EXTT4=
EXTT5=
EXTT6=
EXTT7=
EXTT8=
PLAYORDER=
